<svg width="816" height="214" viewBox="0 0 816 214" fill="none" xmlns="http://www.w3.org/2000/svg">
<path d="M69.12 81V43.56H55.62V39H87.66V43.56H74.16V81H69.12ZM101.717 81.84C98.7569 81.84 96.1569 81.22 93.9169 79.98C91.6769 78.7 89.9369 76.92 88.6969 74.64C87.4569 72.36 86.8369 69.72 86.8369 66.72V66C86.8369 62.96 87.4569 60.3 88.6969 58.02C89.9369 55.74 91.6569 53.98 93.8569 52.74C96.0569 51.46 98.5769 50.82 101.417 50.82C104.177 50.82 106.617 51.42 108.737 52.62C110.857 53.78 112.517 55.46 113.717 57.66C114.917 59.86 115.517 62.44 115.517 65.4V67.56H91.5769C91.6969 70.72 92.7169 73.2 94.6369 75C96.5569 76.76 98.9569 77.64 101.837 77.64C104.357 77.64 106.297 77.06 107.657 75.9C109.017 74.74 110.057 73.36 110.777 71.76L114.857 73.74C114.257 74.98 113.417 76.22 112.337 77.46C111.297 78.7 109.917 79.74 108.197 80.58C106.517 81.42 104.357 81.84 101.717 81.84ZM91.6369 63.66H110.717C110.557 60.94 109.617 58.82 107.897 57.3C106.217 55.78 104.057 55.02 101.417 55.02C98.7369 55.02 96.5369 55.78 94.8169 57.3C93.0969 58.82 92.0369 60.94 91.6369 63.66ZM123.785 81V51.66H128.405V55.26H129.245C129.765 53.98 130.565 53.04 131.645 52.44C132.725 51.84 134.145 51.54 135.905 51.54H139.385V55.86H135.605C133.485 55.86 131.765 56.46 130.445 57.66C129.165 58.82 128.525 60.64 128.525 63.12V81H123.785ZM146.402 81V51.66H151.022V55.32H151.862C152.422 54.28 153.342 53.32 154.622 52.44C155.902 51.56 157.702 51.12 160.022 51.12C162.302 51.12 164.142 51.62 165.542 52.62C166.982 53.62 168.022 54.84 168.662 56.28H169.502C170.182 54.84 171.202 53.62 172.562 52.62C173.962 51.62 175.902 51.12 178.382 51.12C180.342 51.12 182.062 51.52 183.542 52.32C185.022 53.12 186.182 54.28 187.022 55.8C187.902 57.28 188.342 59.06 188.342 61.14V81H183.602V61.56C183.602 59.6 183.022 58.06 181.862 56.94C180.742 55.78 179.162 55.2 177.122 55.2C174.962 55.2 173.182 55.9 171.782 57.3C170.422 58.7 169.742 60.72 169.742 63.36V81H165.002V61.56C165.002 59.6 164.422 58.06 163.262 56.94C162.142 55.78 160.562 55.2 158.522 55.2C156.362 55.2 154.582 55.9 153.182 57.3C151.822 58.7 151.142 60.72 151.142 63.36V81H146.402ZM198.023 81V51.66H202.763V81H198.023ZM200.423 47.1C199.383 47.1 198.503 46.76 197.783 46.08C197.103 45.4 196.763 44.54 196.763 43.5C196.763 42.42 197.103 41.54 197.783 40.86C198.503 40.18 199.383 39.84 200.423 39.84C201.463 39.84 202.323 40.18 203.003 40.86C203.683 41.54 204.023 42.42 204.023 43.5C204.023 44.54 203.683 45.4 203.003 46.08C202.323 46.76 201.463 47.1 200.423 47.1ZM212.73 81V51.66H217.35V56.64H218.19C218.83 55.24 219.91 53.98 221.43 52.86C222.99 51.7 225.27 51.12 228.27 51.12C230.47 51.12 232.43 51.58 234.15 52.5C235.91 53.42 237.31 54.78 238.35 56.58C239.39 58.38 239.91 60.6 239.91 63.24V81H235.17V63.6C235.17 60.68 234.43 58.56 232.95 57.24C231.51 55.92 229.55 55.26 227.07 55.26C224.23 55.26 221.91 56.18 220.11 58.02C218.35 59.86 217.47 62.6 217.47 66.24V81H212.73ZM258.527 81.84C256.487 81.84 254.627 81.48 252.947 80.76C251.267 80.04 249.947 79 248.987 77.64C248.027 76.28 247.547 74.62 247.547 72.66C247.547 70.66 248.027 69.02 248.987 67.74C249.947 66.42 251.267 65.44 252.947 64.8C254.627 64.12 256.507 63.78 258.587 63.78H268.487V61.62C268.487 59.54 267.867 57.9 266.627 56.7C265.427 55.5 263.627 54.9 261.227 54.9C258.867 54.9 257.027 55.48 255.707 56.64C254.387 57.76 253.487 59.28 253.007 61.2L248.567 59.76C249.047 58.12 249.807 56.64 250.847 55.32C251.887 53.96 253.267 52.88 254.987 52.08C256.747 51.24 258.847 50.82 261.287 50.82C265.047 50.82 267.967 51.8 270.047 53.76C272.127 55.68 273.167 58.4 273.167 61.92V75.18C273.167 76.38 273.727 76.98 274.847 76.98H277.547V81H273.407C272.087 81 271.027 80.64 270.227 79.92C269.427 79.16 269.027 78.16 269.027 76.92V76.62H268.307C267.867 77.38 267.267 78.18 266.507 79.02C265.787 79.82 264.787 80.48 263.507 81C262.227 81.56 260.567 81.84 258.527 81.84ZM259.067 77.76C261.867 77.76 264.127 76.94 265.847 75.3C267.607 73.62 268.487 71.28 268.487 68.28V67.62H258.767C256.887 67.62 255.327 68.04 254.087 68.88C252.887 69.68 252.287 70.9 252.287 72.54C252.287 74.18 252.907 75.46 254.147 76.38C255.427 77.3 257.067 77.76 259.067 77.76ZM284.039 81V39H288.779V81H284.039ZM322.714 81V43.56H309.214V39H341.254V43.56H327.754V81H322.714ZM343.277 81V51.66H347.897V55.26H348.737C349.257 53.98 350.057 53.04 351.137 52.44C352.217 51.84 353.637 51.54 355.397 51.54H358.877V55.86H355.097C352.977 55.86 351.257 56.46 349.937 57.66C348.657 58.82 348.017 60.64 348.017 63.12V81H343.277ZM378.399 81.84C375.439 81.84 372.819 81.22 370.539 79.98C368.299 78.74 366.539 77 365.259 74.76C364.019 72.48 363.399 69.8 363.399 66.72V65.94C363.399 62.9 364.019 60.24 365.259 57.96C366.539 55.68 368.299 53.92 370.539 52.68C372.819 51.44 375.439 50.82 378.399 50.82C381.359 50.82 383.959 51.44 386.199 52.68C388.479 53.92 390.239 55.68 391.479 57.96C392.759 60.24 393.399 62.9 393.399 65.94V66.72C393.399 69.8 392.759 72.48 391.479 74.76C390.239 77 388.479 78.74 386.199 79.98C383.959 81.22 381.359 81.84 378.399 81.84ZM378.399 77.58C381.519 77.58 383.999 76.6 385.839 74.64C387.719 72.64 388.659 69.96 388.659 66.6V66.06C388.659 62.7 387.719 60.04 385.839 58.08C383.999 56.08 381.519 55.08 378.399 55.08C375.319 55.08 372.839 56.08 370.959 58.08C369.079 60.04 368.139 62.7 368.139 66.06V66.6C368.139 69.96 369.079 72.64 370.959 74.64C372.839 76.6 375.319 77.58 378.399 77.58ZM408.139 81L397.639 51.66H402.679L411.499 77.46H412.339L421.159 51.66H426.199L415.699 81H408.139ZM445.252 81.84C442.292 81.84 439.692 81.22 437.452 79.98C435.212 78.7 433.472 76.92 432.232 74.64C430.992 72.36 430.372 69.72 430.372 66.72V66C430.372 62.96 430.992 60.3 432.232 58.02C433.472 55.74 435.192 53.98 437.392 52.74C439.592 51.46 442.112 50.82 444.952 50.82C447.712 50.82 450.152 51.42 452.272 52.62C454.392 53.78 456.052 55.46 457.252 57.66C458.452 59.86 459.052 62.44 459.052 65.4V67.56H435.112C435.232 70.72 436.252 73.2 438.172 75C440.092 76.76 442.492 77.64 445.372 77.64C447.892 77.64 449.832 77.06 451.192 75.9C452.552 74.74 453.592 73.36 454.312 71.76L458.392 73.74C457.792 74.98 456.952 76.22 455.872 77.46C454.832 78.7 453.452 79.74 451.732 80.58C450.052 81.42 447.892 81.84 445.252 81.84ZM435.172 63.66H454.252C454.092 60.94 453.152 58.82 451.432 57.3C449.752 55.78 447.592 55.02 444.952 55.02C442.272 55.02 440.072 55.78 438.352 57.3C436.632 58.82 435.572 60.94 435.172 63.66Z" fill="#FFD050"/>
<path d="M67.144 178V133.072H50.944V127.6H89.392V133.072H73.192V178H67.144ZM106.404 179.008C102.852 179.008 99.7083 178.264 96.9723 176.776C94.2843 175.288 92.1723 173.2 90.6363 170.512C89.1483 167.776 88.4043 164.56 88.4043 160.864V159.928C88.4043 156.28 89.1483 153.088 90.6363 150.352C92.1723 147.616 94.2843 145.504 96.9723 144.016C99.7083 142.528 102.852 141.784 106.404 141.784C109.956 141.784 113.076 142.528 115.764 144.016C118.5 145.504 120.612 147.616 122.1 150.352C123.636 153.088 124.404 156.28 124.404 159.928V160.864C124.404 164.56 123.636 167.776 122.1 170.512C120.612 173.2 118.5 175.288 115.764 176.776C113.076 178.264 109.956 179.008 106.404 179.008ZM106.404 173.896C110.148 173.896 113.124 172.72 115.332 170.368C117.588 167.968 118.716 164.752 118.716 160.72V160.072C118.716 156.04 117.588 152.848 115.332 150.496C113.124 148.096 110.148 146.896 106.404 146.896C102.708 146.896 99.7323 148.096 97.4763 150.496C95.2203 152.848 94.0923 156.04 94.0923 160.072V160.72C94.0923 164.752 95.2203 167.968 97.4763 170.368C99.7323 172.72 102.708 173.896 106.404 173.896ZM150.912 179.008C147.36 179.008 144.216 178.264 141.48 176.776C138.792 175.288 136.68 173.2 135.144 170.512C133.656 167.776 132.912 164.56 132.912 160.864V159.928C132.912 156.28 133.656 153.088 135.144 150.352C136.68 147.616 138.792 145.504 141.48 144.016C144.216 142.528 147.36 141.784 150.912 141.784C154.464 141.784 157.584 142.528 160.272 144.016C163.008 145.504 165.12 147.616 166.608 150.352C168.144 153.088 168.912 156.28 168.912 159.928V160.864C168.912 164.56 168.144 167.776 166.608 170.512C165.12 173.2 163.008 175.288 160.272 176.776C157.584 178.264 154.464 179.008 150.912 179.008ZM150.912 173.896C154.656 173.896 157.632 172.72 159.84 170.368C162.096 167.968 163.224 164.752 163.224 160.72V160.072C163.224 156.04 162.096 152.848 159.84 150.496C157.632 148.096 154.656 146.896 150.912 146.896C147.216 146.896 144.24 148.096 141.984 150.496C139.728 152.848 138.6 156.04 138.6 160.072V160.72C138.6 164.752 139.728 167.968 141.984 170.368C144.24 172.72 147.216 173.896 150.912 173.896ZM179.148 178V127.6H184.836V178H179.148ZM231.561 179.008C228.009 179.008 224.865 178.264 222.129 176.776C219.441 175.288 217.329 173.2 215.793 170.512C214.305 167.776 213.561 164.56 213.561 160.864V159.928C213.561 156.28 214.305 153.088 215.793 150.352C217.329 147.616 219.441 145.504 222.129 144.016C224.865 142.528 228.009 141.784 231.561 141.784C235.113 141.784 238.233 142.528 240.921 144.016C243.657 145.504 245.769 147.616 247.257 150.352C248.793 153.088 249.561 156.28 249.561 159.928V160.864C249.561 164.56 248.793 167.776 247.257 170.512C245.769 173.2 243.657 175.288 240.921 176.776C238.233 178.264 235.113 179.008 231.561 179.008ZM231.561 173.896C235.305 173.896 238.281 172.72 240.489 170.368C242.745 167.968 243.873 164.752 243.873 160.72V160.072C243.873 156.04 242.745 152.848 240.489 150.496C238.281 148.096 235.305 146.896 231.561 146.896C227.865 146.896 224.889 148.096 222.633 150.496C220.377 152.848 219.249 156.04 219.249 160.072V160.72C219.249 164.752 220.377 167.968 222.633 170.368C224.889 172.72 227.865 173.896 231.561 173.896ZM265.232 178V147.76H254.432V142.792H265.232V133.792C265.232 131.872 265.76 130.36 266.816 129.256C267.92 128.152 269.48 127.6 271.496 127.6H280.352V132.496H273.08C271.64 132.496 270.92 133.216 270.92 134.656V142.792H282.008V147.76H270.92V178H265.232ZM318.933 178V133.072H302.733V127.6H341.181V133.072H324.981V178H318.933ZM349.093 178V127.6H354.781V148.408H355.789C356.269 147.352 356.989 146.368 357.949 145.456C358.957 144.496 360.229 143.704 361.765 143.08C363.349 142.456 365.341 142.144 367.741 142.144C370.381 142.144 372.733 142.72 374.797 143.872C376.909 144.976 378.589 146.608 379.837 148.768C381.085 150.88 381.709 153.52 381.709 156.688V178H376.021V157.12C376.021 153.616 375.133 151.072 373.357 149.488C371.629 147.904 369.277 147.112 366.301 147.112C362.893 147.112 360.109 148.216 357.949 150.424C355.837 152.632 354.781 155.92 354.781 160.288V178H349.093ZM409.377 179.008C405.825 179.008 402.705 178.264 400.017 176.776C397.329 175.24 395.241 173.104 393.753 170.368C392.265 167.632 391.521 164.464 391.521 160.864V160C391.521 156.352 392.265 153.16 393.753 150.424C395.241 147.688 397.305 145.576 399.945 144.088C402.585 142.552 405.609 141.784 409.017 141.784C412.329 141.784 415.257 142.504 417.801 143.944C420.345 145.336 422.337 147.352 423.777 149.992C425.217 152.632 425.937 155.728 425.937 159.28V161.872H397.209C397.353 165.664 398.577 168.64 400.881 170.8C403.185 172.912 406.065 173.968 409.521 173.968C412.545 173.968 414.873 173.272 416.505 171.88C418.137 170.488 419.385 168.832 420.249 166.912L425.145 169.288C424.425 170.776 423.417 172.264 422.121 173.752C420.873 175.24 419.217 176.488 417.153 177.496C415.137 178.504 412.545 179.008 409.377 179.008ZM397.281 157.192H420.177C419.985 153.928 418.857 151.384 416.793 149.56C414.777 147.736 412.185 146.824 409.017 146.824C405.801 146.824 403.161 147.736 401.097 149.56C399.033 151.384 397.761 153.928 397.281 157.192ZM458.755 178L450.547 127.6H456.595L463.723 174.112H464.731L474.019 127.6H484.819L494.035 174.112H495.043L502.171 127.6H508.219L500.011 178H489.211L479.923 131.2H478.915L469.627 178H458.755ZM532.002 179.008C528.45 179.008 525.33 178.264 522.642 176.776C519.954 175.24 517.866 173.104 516.378 170.368C514.89 167.632 514.146 164.464 514.146 160.864V160C514.146 156.352 514.89 153.16 516.378 150.424C517.866 147.688 519.93 145.576 522.57 144.088C525.21 142.552 528.234 141.784 531.642 141.784C534.954 141.784 537.882 142.504 540.426 143.944C542.97 145.336 544.962 147.352 546.402 149.992C547.842 152.632 548.562 155.728 548.562 159.28V161.872H519.834C519.978 165.664 521.202 168.64 523.506 170.8C525.81 172.912 528.69 173.968 532.146 173.968C535.17 173.968 537.498 173.272 539.13 171.88C540.762 170.488 542.01 168.832 542.874 166.912L547.77 169.288C547.05 170.776 546.042 172.264 544.746 173.752C543.498 175.24 541.842 176.488 539.778 177.496C537.762 178.504 535.17 179.008 532.002 179.008ZM519.906 157.192H542.802C542.61 153.928 541.482 151.384 539.418 149.56C537.402 147.736 534.81 146.824 531.642 146.824C528.426 146.824 525.786 147.736 523.722 149.56C521.658 151.384 520.386 153.928 519.906 157.192ZM574.612 179.008C571.06 179.008 567.94 178.264 565.252 176.776C562.564 175.24 560.476 173.104 558.988 170.368C557.5 167.632 556.756 164.464 556.756 160.864V160C556.756 156.352 557.5 153.16 558.988 150.424C560.476 147.688 562.54 145.576 565.18 144.088C567.82 142.552 570.844 141.784 574.252 141.784C577.564 141.784 580.492 142.504 583.036 143.944C585.58 145.336 587.572 147.352 589.012 149.992C590.452 152.632 591.172 155.728 591.172 159.28V161.872H562.444C562.588 165.664 563.812 168.64 566.116 170.8C568.42 172.912 571.3 173.968 574.756 173.968C577.78 173.968 580.108 173.272 581.74 171.88C583.372 170.488 584.62 168.832 585.484 166.912L590.38 169.288C589.66 170.776 588.652 172.264 587.356 173.752C586.108 175.24 584.452 176.488 582.388 177.496C580.372 178.504 577.78 179.008 574.612 179.008ZM562.516 157.192H585.412C585.22 153.928 584.092 151.384 582.028 149.56C580.012 147.736 577.42 146.824 574.252 146.824C571.036 146.824 568.396 147.736 566.332 149.56C564.268 151.384 562.996 153.928 562.516 157.192ZM601.093 178V127.6H606.781V157.264H607.789L623.917 142.792H631.837L612.325 159.928L632.413 178H624.565L607.789 162.664H606.781V178H601.093Z" fill="#FFD050"/>
<path d="M674 0H778V117L726 91.2097L674 117V0Z" fill="#FFD050"/>
<path d="M726.5 22L732.674 41.002H752.654L736.49 52.7459L742.664 71.748L726.5 60.0041L710.336 71.748L716.51 52.7459L700.346 41.002H720.326L726.5 22Z" fill="black"/>
</svg>
