<svg width="590" height="152" viewBox="0 0 590 152" fill="none" xmlns="http://www.w3.org/2000/svg">
<path d="M42.5104 65.7059V30.3109H30V26H59.6914V30.3109H47.181V65.7059H42.5104ZM72.718 66.5C69.9749 66.5 67.5655 65.9139 65.4897 64.7416C63.4139 63.5315 61.8014 61.8487 60.6523 59.6933C59.5032 57.5378 58.9287 55.042 58.9287 52.2059V51.5252C58.9287 48.6513 59.5032 46.1366 60.6523 43.9811C61.8014 41.8256 63.3954 40.1618 65.4341 38.9895C67.4728 37.7794 69.8081 37.1744 72.44 37.1744C74.9977 37.1744 77.2589 37.7416 79.2235 38.8761C81.1881 39.9727 82.7264 41.5609 83.8384 43.6408C84.9505 45.7206 85.5065 48.1597 85.5065 50.958V53H63.3212C63.4324 55.9874 64.3777 58.3319 66.1569 60.0336C67.9362 61.6975 70.1603 62.5294 72.8292 62.5294C75.1645 62.5294 76.9623 61.9811 78.2226 60.8845C79.4829 59.7878 80.4467 58.4832 81.1139 56.9706L84.8949 58.8424C84.3389 60.0147 83.5604 61.187 82.5596 62.3592C81.5958 63.5315 80.317 64.5147 78.7231 65.3088C77.1662 66.1029 75.1645 66.5 72.718 66.5ZM63.3768 49.313H81.0583C80.9101 46.7416 80.039 44.7374 78.445 43.3004C76.8882 41.8634 74.8865 41.145 72.44 41.145C69.9564 41.145 67.9177 41.8634 66.3237 43.3004C64.7298 44.7374 63.7475 46.7416 63.3768 49.313ZM93.1684 65.7059V37.9685H97.4498V41.3718H98.2282C98.7101 40.1618 99.4515 39.2731 100.452 38.7059C101.453 38.1387 102.769 37.855 104.4 37.855H107.625V41.9391H104.122C102.157 41.9391 100.564 42.5063 99.3403 43.6408C98.1541 44.7374 97.561 46.458 97.561 48.8025V65.7059H93.1684ZM114.128 65.7059V37.9685H118.409V41.4286H119.187C119.706 40.4454 120.559 39.5378 121.745 38.7059C122.931 37.8739 124.599 37.458 126.749 37.458C128.862 37.458 130.567 37.9307 131.865 38.8761C133.199 39.8214 134.163 40.9748 134.756 42.3361H135.534C136.164 40.9748 137.11 39.8214 138.37 38.8761C139.667 37.9307 141.465 37.458 143.763 37.458C145.58 37.458 147.174 37.8361 148.545 38.5924C149.917 39.3487 150.992 40.4454 151.77 41.8824C152.586 43.2815 152.993 44.9643 152.993 46.9307V65.7059H148.601V47.3277C148.601 45.4748 148.063 44.0189 146.988 42.9601C145.95 41.8634 144.486 41.3151 142.596 41.3151C140.594 41.3151 138.945 41.9769 137.647 43.3004C136.387 44.624 135.757 46.5336 135.757 49.0294V65.7059H131.364V47.3277C131.364 45.4748 130.827 44.0189 129.752 42.9601C128.714 41.8634 127.25 41.3151 125.359 41.3151C123.358 41.3151 121.708 41.9769 120.411 43.3004C119.15 44.624 118.52 46.5336 118.52 49.0294V65.7059H114.128ZM161.965 65.7059V37.9685H166.357V65.7059H161.965ZM164.189 33.6576C163.225 33.6576 162.41 33.3361 161.742 32.6933C161.112 32.0504 160.797 31.2374 160.797 30.2542C160.797 29.2332 161.112 28.4013 161.742 27.7584C162.41 27.1155 163.225 26.7941 164.189 26.7941C165.153 26.7941 165.95 27.1155 166.58 27.7584C167.21 28.4013 167.525 29.2332 167.525 30.2542C167.525 31.2374 167.21 32.0504 166.58 32.6933C165.95 33.3361 165.153 33.6576 164.189 33.6576ZM175.594 65.7059V37.9685H179.875V42.6765H180.653C181.247 41.3529 182.247 40.1618 183.656 39.1029C185.102 38.0063 187.215 37.458 189.995 37.458C192.033 37.458 193.85 37.8929 195.444 38.7626C197.075 39.6324 198.372 40.9181 199.336 42.6198C200.299 44.3214 200.781 46.4202 200.781 48.916V65.7059H196.389V49.2563C196.389 46.4958 195.703 44.4916 194.332 43.2437C192.997 41.9958 191.181 41.3718 188.883 41.3718C186.251 41.3718 184.101 42.2416 182.433 43.9811C180.802 45.7206 179.986 48.3109 179.986 51.7521V65.7059H175.594ZM218.034 66.5C216.143 66.5 214.42 66.1597 212.863 65.479C211.306 64.7983 210.083 63.8151 209.193 62.5294C208.303 61.2437 207.859 59.6744 207.859 57.8214C207.859 55.9307 208.303 54.3803 209.193 53.1702C210.083 51.9223 211.306 50.9958 212.863 50.3908C214.42 49.7479 216.162 49.4265 218.089 49.4265H227.264V47.3845C227.264 45.4181 226.689 43.8676 225.54 42.7332C224.428 41.5987 222.76 41.0315 220.536 41.0315C218.349 41.0315 216.644 41.5798 215.42 42.6765C214.197 43.7353 213.363 45.1723 212.918 46.9874L208.804 45.6261C209.249 44.0756 209.953 42.6765 210.917 41.4286C211.88 40.1429 213.159 39.1219 214.753 38.3655C216.384 37.5714 218.33 37.1744 220.591 37.1744C224.076 37.1744 226.782 38.1008 228.709 39.9538C230.637 41.7689 231.601 44.3403 231.601 47.6681V60.2038C231.601 61.3382 232.12 61.9055 233.157 61.9055H235.66V65.7059H231.823C230.6 65.7059 229.617 65.3655 228.876 64.6849C228.135 63.9664 227.764 63.021 227.764 61.8487V61.5651H227.097C226.689 62.2836 226.133 63.0399 225.429 63.834C224.762 64.5903 223.835 65.2143 222.649 65.7059C221.463 66.2353 219.924 66.5 218.034 66.5ZM218.534 62.6429C221.129 62.6429 223.223 61.8677 224.817 60.3172C226.448 58.729 227.264 56.5168 227.264 53.6807V53.0567H218.256C216.514 53.0567 215.068 53.4538 213.919 54.2479C212.807 55.0042 212.251 56.1576 212.251 57.708C212.251 59.2584 212.826 60.4685 213.975 61.3382C215.161 62.208 216.681 62.6429 218.534 62.6429ZM241.676 65.7059V26H246.068V65.7059H241.676ZM277.516 65.7059V30.3109H265.005V26H294.697V30.3109H282.186V65.7059H277.516ZM296.571 65.7059V37.9685H300.853V41.3718H301.631C302.113 40.1618 302.854 39.2731 303.855 38.7059C304.856 38.1387 306.172 37.855 307.803 37.855H311.028V41.9391H307.525C305.56 41.9391 303.967 42.5063 302.743 43.6408C301.557 44.7374 300.964 46.458 300.964 48.8025V65.7059H296.571ZM329.119 66.5C326.376 66.5 323.948 65.9139 321.835 64.7416C319.759 63.5693 318.128 61.9244 316.942 59.8067C315.793 57.6513 315.218 55.1177 315.218 52.2059V51.4685C315.218 48.5945 315.793 46.0798 316.942 43.9244C318.128 41.7689 319.759 40.105 321.835 38.9328C323.948 37.7605 326.376 37.1744 329.119 37.1744C331.862 37.1744 334.271 37.7605 336.347 38.9328C338.46 40.105 340.091 41.7689 341.24 43.9244C342.426 46.0798 343.019 48.5945 343.019 51.4685V52.2059C343.019 55.1177 342.426 57.6513 341.24 59.8067C340.091 61.9244 338.46 63.5693 336.347 64.7416C334.271 65.9139 331.862 66.5 329.119 66.5ZM329.119 62.4727C332.01 62.4727 334.308 61.5462 336.014 59.6933C337.756 57.8025 338.627 55.2689 338.627 52.0924V51.5819C338.627 48.4055 337.756 45.8908 336.014 44.0378C334.308 42.1471 332.01 41.2017 329.119 41.2017C326.265 41.2017 323.967 42.1471 322.224 44.0378C320.482 45.8908 319.611 48.4055 319.611 51.5819V52.0924C319.611 55.2689 320.482 57.8025 322.224 59.6933C323.967 61.5462 326.265 62.4727 329.119 62.4727ZM356.679 65.7059L346.949 37.9685H351.619L359.793 62.3592H360.571L368.745 37.9685H373.415L363.685 65.7059H356.679ZM391.072 66.5C388.329 66.5 385.919 65.9139 383.843 64.7416C381.768 63.5315 380.155 61.8487 379.006 59.6933C377.857 57.5378 377.282 55.042 377.282 52.2059V51.5252C377.282 48.6513 377.857 46.1366 379.006 43.9811C380.155 41.8256 381.749 40.1618 383.788 38.9895C385.826 37.7794 388.162 37.1744 390.794 37.1744C393.351 37.1744 395.612 37.7416 397.577 38.8761C399.542 39.9727 401.08 41.5609 402.192 43.6408C403.304 45.7206 403.86 48.1597 403.86 50.958V53H381.675C381.786 55.9874 382.731 58.3319 384.511 60.0336C386.29 61.6975 388.514 62.5294 391.183 62.5294C393.518 62.5294 395.316 61.9811 396.576 60.8845C397.836 59.7878 398.8 58.4832 399.468 56.9706L403.248 58.8424C402.692 60.0147 401.914 61.187 400.913 62.3592C399.949 63.5315 398.671 64.5147 397.077 65.3088C395.52 66.1029 393.518 66.5 391.072 66.5ZM381.73 49.313H399.412C399.264 46.7416 398.393 44.7374 396.799 43.3004C395.242 41.8634 393.24 41.145 390.794 41.145C388.31 41.145 386.271 41.8634 384.677 43.3004C383.083 44.7374 382.101 46.7416 381.73 49.313Z" fill="#FFD050"/>
<path d="M67.776 124.431V99.0868H59V96H79.8285V99.0868H71.0524V124.431H67.776ZM89.0444 125C87.1202 125 85.4171 124.58 83.935 123.741C82.4788 122.901 81.3347 121.724 80.5026 120.207C79.6965 118.664 79.2934 116.85 79.2934 114.765V114.237C79.2934 112.179 79.6965 110.378 80.5026 108.835C81.3347 107.291 82.4788 106.1 83.935 105.261C85.4171 104.421 87.1202 104.001 89.0444 104.001C90.9687 104.001 92.6589 104.421 94.115 105.261C95.5972 106.1 96.7413 107.291 97.5474 108.835C98.3795 110.378 98.7956 112.179 98.7956 114.237V114.765C98.7956 116.85 98.3795 118.664 97.5474 120.207C96.7413 121.724 95.5972 122.901 94.115 123.741C92.6589 124.58 90.9687 125 89.0444 125ZM89.0444 122.116C91.0727 122.116 92.6849 121.453 93.881 120.126C95.1031 118.772 95.7142 116.958 95.7142 114.683V114.318C95.7142 112.043 95.1031 110.243 93.881 108.916C92.6849 107.562 91.0727 106.885 89.0444 106.885C87.0422 106.885 85.4302 107.562 84.208 108.916C82.9859 110.243 82.3748 112.043 82.3748 114.318V114.683C82.3748 116.958 82.9859 118.772 84.208 120.126C85.4302 121.453 87.0422 122.116 89.0444 122.116ZM113.156 125C111.232 125 109.528 124.58 108.046 123.741C106.59 122.901 105.446 121.724 104.614 120.207C103.808 118.664 103.405 116.85 103.405 114.765V114.237C103.405 112.179 103.808 110.378 104.614 108.835C105.446 107.291 106.59 106.1 108.046 105.261C109.528 104.421 111.232 104.001 113.156 104.001C115.08 104.001 116.77 104.421 118.226 105.261C119.709 106.1 120.853 107.291 121.659 108.835C122.491 110.378 122.907 112.179 122.907 114.237V114.765C122.907 116.85 122.491 118.664 121.659 120.207C120.853 121.724 119.709 122.901 118.226 123.741C116.77 124.58 115.08 125 113.156 125ZM113.156 122.116C115.184 122.116 116.796 121.453 117.992 120.126C119.215 118.772 119.826 116.958 119.826 114.683V114.318C119.826 112.043 119.215 110.243 117.992 108.916C116.796 107.562 115.184 106.885 113.156 106.885C111.154 106.885 109.541 107.562 108.319 108.916C107.097 110.243 106.486 112.043 106.486 114.318V114.683C106.486 116.958 107.097 118.772 108.319 120.126C109.541 121.453 111.154 122.116 113.156 122.116ZM128.452 124.431V96H131.533V124.431H128.452ZM156.846 125C154.922 125 153.218 124.58 151.736 123.741C150.28 122.901 149.136 121.724 148.304 120.207C147.498 118.664 147.095 116.85 147.095 114.765V114.237C147.095 112.179 147.498 110.378 148.304 108.835C149.136 107.291 150.28 106.1 151.736 105.261C153.218 104.421 154.922 104.001 156.846 104.001C158.77 104.001 160.46 104.421 161.917 105.261C163.399 106.1 164.543 107.291 165.349 108.835C166.181 110.378 166.597 112.179 166.597 114.237V114.765C166.597 116.85 166.181 118.664 165.349 120.207C164.543 121.724 163.399 122.901 161.917 123.741C160.46 124.58 158.77 125 156.846 125ZM156.846 122.116C158.874 122.116 160.486 121.453 161.682 120.126C162.905 118.772 163.516 116.958 163.516 114.683V114.318C163.516 112.043 162.905 110.243 161.682 108.916C160.486 107.562 158.874 106.885 156.846 106.885C154.844 106.885 153.231 107.562 152.009 108.916C150.787 110.243 150.176 112.043 150.176 114.318V114.683C150.176 116.958 150.787 118.772 152.009 120.126C153.231 121.453 154.844 122.116 156.846 122.116ZM175.087 124.431V107.373H169.236V104.57H175.087V99.493C175.087 98.4099 175.373 97.557 175.945 96.9342C176.543 96.3114 177.388 96 178.48 96H183.278V98.7619H179.338C178.558 98.7619 178.168 99.1681 178.168 99.9804V104.57H184.175V107.373H178.168V124.431H175.087ZM204.178 124.431V99.0868H195.402V96H216.23V99.0868H207.454V124.431H204.178ZM220.517 124.431V96H223.598V107.738H224.144C224.404 107.142 224.794 106.587 225.314 106.073C225.86 105.531 226.549 105.085 227.381 104.732C228.24 104.38 229.319 104.204 230.619 104.204C232.049 104.204 233.323 104.529 234.441 105.179C235.585 105.802 236.496 106.723 237.172 107.941C237.848 109.133 238.186 110.622 238.186 112.409V124.431H235.104V112.653C235.104 110.676 234.623 109.241 233.661 108.347C232.725 107.454 231.451 107.007 229.839 107.007C227.993 107.007 226.484 107.63 225.314 108.875C224.17 110.121 223.598 111.976 223.598 114.44V124.431H220.517ZM253.174 125C251.25 125 249.56 124.58 248.104 123.741C246.648 122.874 245.516 121.669 244.71 120.126C243.904 118.583 243.501 116.796 243.501 114.765V114.277C243.501 112.219 243.904 110.419 244.71 108.875C245.516 107.332 246.635 106.141 248.065 105.301C249.495 104.435 251.133 104.001 252.979 104.001C254.774 104.001 256.36 104.408 257.738 105.22C259.116 106.005 260.195 107.142 260.975 108.632C261.755 110.121 262.145 111.867 262.145 113.871V115.333H246.583C246.661 117.472 247.324 119.151 248.572 120.37C249.82 121.561 251.38 122.157 253.252 122.157C254.891 122.157 256.152 121.764 257.036 120.979C257.92 120.194 258.596 119.26 259.064 118.176L261.716 119.517C261.326 120.356 260.78 121.196 260.078 122.035C259.402 122.874 258.505 123.578 257.387 124.147C256.295 124.716 254.891 125 253.174 125ZM246.622 112.693H259.025C258.921 110.852 258.31 109.417 257.192 108.388C256.1 107.359 254.696 106.845 252.979 106.845C251.237 106.845 249.807 107.359 248.689 108.388C247.571 109.417 246.882 110.852 246.622 112.693ZM279.924 124.431L275.477 96H278.754L282.615 122.238H283.161L288.193 96H294.044L299.036 122.238H299.582L303.444 96H306.72L302.274 124.431H296.423L291.391 98.0308H290.845L285.814 124.431H279.924ZM319.604 125C317.68 125 315.99 124.58 314.534 123.741C313.077 122.874 311.946 121.669 311.14 120.126C310.334 118.583 309.931 116.796 309.931 114.765V114.277C309.931 112.219 310.334 110.419 311.14 108.875C311.946 107.332 313.064 106.141 314.495 105.301C315.925 104.435 317.563 104.001 319.409 104.001C321.203 104.001 322.79 104.408 324.168 105.22C325.546 106.005 326.625 107.142 327.405 108.632C328.185 110.121 328.575 111.867 328.575 113.871V115.333H313.012C313.09 117.472 313.753 119.151 315.002 120.37C316.25 121.561 317.81 122.157 319.682 122.157C321.32 122.157 322.582 121.764 323.466 120.979C324.35 120.194 325.026 119.26 325.494 118.176L328.146 119.517C327.756 120.356 327.21 121.196 326.508 122.035C325.832 122.874 324.935 123.578 323.817 124.147C322.725 124.716 321.32 125 319.604 125ZM313.051 112.693H325.455C325.351 110.852 324.74 109.417 323.622 108.388C322.53 107.359 321.125 106.845 319.409 106.845C317.667 106.845 316.237 107.359 315.119 108.388C314.001 109.417 313.311 110.852 313.051 112.693ZM342.687 125C340.763 125 339.073 124.58 337.617 123.741C336.161 122.874 335.029 121.669 334.223 120.126C333.417 118.583 333.014 116.796 333.014 114.765V114.277C333.014 112.219 333.417 110.419 334.223 108.875C335.029 107.332 336.148 106.141 337.578 105.301C339.008 104.435 340.646 104.001 342.492 104.001C344.287 104.001 345.873 104.408 347.251 105.22C348.629 106.005 349.708 107.142 350.488 108.632C351.268 110.121 351.658 111.867 351.658 113.871V115.333H336.096C336.174 117.472 336.837 119.151 338.085 120.37C339.333 121.561 340.893 122.157 342.765 122.157C344.404 122.157 345.665 121.764 346.549 120.979C347.433 120.194 348.109 119.26 348.577 118.176L351.229 119.517C350.839 120.356 350.293 121.196 349.591 122.035C348.915 122.874 348.018 123.578 346.9 124.147C345.808 124.716 344.404 125 342.687 125ZM336.135 112.693H348.538C348.434 110.852 347.823 109.417 346.705 108.388C345.613 107.359 344.209 106.845 342.492 106.845C340.75 106.845 339.32 107.359 338.202 108.388C337.084 109.417 336.395 110.852 336.135 112.693ZM357.033 124.431V96H360.114V112.734H360.66L369.397 104.57H373.688L363.118 114.237L374 124.431H369.748L360.66 115.78H360.114V124.431H357.033Z" fill="#FFD050"/>
<path d="M472 26H560V125L516 103.177L472 125V26Z" fill="#FFD050"/>
<path d="M516.13 38.6923L521.354 54.7709H538.261L524.583 64.7081L529.808 80.7868L516.13 70.8496L502.453 80.7868L507.677 64.7081L494 54.7709H510.906L516.13 38.6923Z" fill="black"/>
</svg>
